<svg id="esbNATXQqdJ1" xmlns="http://www.w3.org/2000/svg" xmlns:xlink="http://www.w3.org/1999/xlink" viewBox="-6.4 -6.4 76.8 76.8" shape-rendering="geometricPrecision" text-rendering="geometricPrecision"><g transform="matrix(.999985-.005549 0.005549 0.999985-6.74007 1.594121)"><g transform="translate(.008831-1.591821)"><path d="M6.966,61.26c-.143.532-.691.849-1.224.707-.534-.145-.851-.691-.708-1.225l2.552-9.686c.405.672.998,1.212,1.712,1.55L6.966,61.26Z" fill="#a17878" stroke="#383838"/><path d="M55,27c0,13.233-10.767,24-24,24h-20c-1.104,0-2-.896-2-2v-1-21C9,14.641,18.92,4.769,33.124,2.992c4.839-.604,10.391-.951,15.233-.951c4.048,0,7.553.242,10.238.705C55,11.565,55,20.443,55,27Z" fill="#7bc189" stroke="#383838"/><g><path d="M34.929,7.629c-.205-.513-.787-.763-1.297-.557-.513.203-.764.784-.562,1.297.019.047,1.84,4.804-.032,11.356c0,0-.001.007-.001.011-1.215,1.103-2.459,2.271-3.744,3.557-1.357,1.357-2.591,2.671-3.745,3.948.998-9.183-.498-16.128-.571-16.458-.12-.539-.654-.876-1.193-.76-.539.12-.879.654-.76,1.193.019.086,1.823,8.469.13,18.763-2.26,2.695-4.05,5.14-5.464,7.261.709-7.9-.644-14.145-.713-14.457-.12-.539-.65-.886-1.193-.759-.539.119-.879.653-.76,1.192.02.087,1.885,8.75.048,18.297-1.383,2.488-1.953,3.988-2.01,4.141-.19.518.074,1.092.592,1.283.114.042.231.063.346.063.406,0,.788-.25.938-.653.013-.034.5-1.302,1.684-3.468c10.438-2.726,19.995.051,20.092.079.095.028.191.042.286.042.431,0,.828-.28.958-.714.158-.528-.142-1.085-.671-1.244-.39-.118-9.087-2.651-19.287-.536c1.416-2.316,3.406-5.218,6.108-8.52.052-.006.104-.008.154-.021c10.595-2.889,21.367-.029,21.475,0c.088.023.176.035.263.035.44,0,.844-.292.965-.737.145-.533-.169-1.082-.702-1.228-.425-.116-9.801-2.598-20.012-.576c1.341-1.524,2.814-3.109,4.456-4.752c1.41-1.41,2.777-2.693,4.103-3.88c6.452-1.649,12.852.116,12.916.135.091.025.183.038.274.038.436,0,.836-.287.961-.727.151-.53-.155-1.083-.687-1.235-.239-.067-4.9-1.367-10.473-.779c8.531-7.021,14.472-9.294,14.545-9.321.518-.191.782-.767.591-1.284-.191-.519-.766-.779-1.283-.592-.326.12-6.805,2.58-16.068,10.431.941-5.758-.582-9.677-.657-9.864Z" fill="#394240" stroke="#383838"/><path d="M60.893,1.549c-.136-.269-.386-.462-.679-.525-2.98-.652-6.97-.982-11.856-.982-4.922,0-10.564.353-15.481.967C17.641,2.912,7,13.601,7,27v18.678L3.103,60.225c-.428,1.598.523,3.244,2.122,3.674c1.598.426,3.245-.525,3.673-2.121L11.25,53L31,53c14.337,0,26-11.663,26-26c0-6.663,0-15.788,3.914-24.594.122-.274.114-.59-.021-.857ZM6.966,61.26c-.143.532-.691.849-1.224.707-.534-.145-.851-.691-.708-1.225l2.552-9.686c.405.672.998,1.212,1.712,1.55L6.966,61.26ZM55,27c0,13.233-10.767,24-24,24h-20c-1.104,0-2-.896-2-2v-1-21C9,14.641,18.92,4.769,33.124,2.992c4.839-.604,10.391-.951,15.233-.951c4.048,0,7.553.242,10.238.705C55,11.565,55,20.443,55,27Z" fill="#394240" stroke="#383838"/></g></g></g><g transform="matrix(1.038568 0.288005-.217369 0.783851 7.056269 10.050979)"><g><path d="M6.966,61.26c-.143.532-.691.849-1.224.707-.534-.145-.851-.691-.708-1.225l2.552-9.686c.405.672.998,1.212,1.712,1.55L6.966,61.26Z" fill="#a17878" stroke="#383838"/><path d="M55,27c0,13.233-10.767,24-24,24h-20c-1.104,0-2-.896-2-2v-1-21C9,14.641,18.92,4.769,33.124,2.992c4.839-.604,10.391-.951,15.233-.951c4.048,0,7.553.242,10.238.705C55,11.565,55,20.443,55,27Z" fill="#7bc189" stroke="#383838"/><g><path d="M34.929,7.629c-.205-.513-.787-.763-1.297-.557-.513.203-.764.784-.562,1.297.019.047,1.84,4.804-.032,11.356c0,0-.001.007-.001.011-1.215,1.103-2.459,2.271-3.744,3.557-1.357,1.357-2.591,2.671-3.745,3.948.998-9.183-.498-16.128-.571-16.458-.12-.539-.654-.876-1.193-.76-.539.12-.879.654-.76,1.193.019.086,1.823,8.469.13,18.763-2.26,2.695-4.05,5.14-5.464,7.261.709-7.9-.644-14.145-.713-14.457-.12-.539-.65-.886-1.193-.759-.539.119-.879.653-.76,1.192.02.087,1.885,8.75.048,18.297-1.383,2.488-1.953,3.988-2.01,4.141-.19.518.074,1.092.592,1.283.114.042.231.063.346.063.406,0,.788-.25.938-.653.013-.034.5-1.302,1.684-3.468c10.438-2.726,19.995.051,20.092.079.095.028.191.042.286.042.431,0,.828-.28.958-.714.158-.528-.142-1.085-.671-1.244-.39-.118-9.087-2.651-19.287-.536c1.416-2.316,3.406-5.218,6.108-8.52.052-.006.104-.008.154-.021c10.595-2.889,21.367-.029,21.475,0c.088.023.176.035.263.035.44,0,.844-.292.965-.737.145-.533-.169-1.082-.702-1.228-.425-.116-9.801-2.598-20.012-.576c1.341-1.524,2.814-3.109,4.456-4.752c1.41-1.41,2.777-2.693,4.103-3.88c6.452-1.649,12.852.116,12.916.135.091.025.183.038.274.038.436,0,.836-.287.961-.727.151-.53-.155-1.083-.687-1.235-.239-.067-4.9-1.367-10.473-.779c8.531-7.021,14.472-9.294,14.545-9.321.518-.191.782-.767.591-1.284-.191-.519-.766-.779-1.283-.592-.326.12-6.805,2.58-16.068,10.431.941-5.758-.582-9.677-.657-9.864Z" fill="#394240" stroke="#383838"/><path d="M60.893,1.549c-.136-.269-.386-.462-.679-.525-2.98-.652-6.97-.982-11.856-.982-4.922,0-10.564.353-15.481.967C17.641,2.912,7,13.601,7,27v18.678L3.103,60.225c-.428,1.598.523,3.244,2.122,3.674c1.598.426,3.245-.525,3.673-2.121L11.25,53L31,53c14.337,0,26-11.663,26-26c0-6.663,0-15.788,3.914-24.594.122-.274.114-.59-.021-.857ZM6.966,61.26c-.143.532-.691.849-1.224.707-.534-.145-.851-.691-.708-1.225l2.552-9.686c.405.672.998,1.212,1.712,1.55L6.966,61.26ZM55,27c0,13.233-10.767,24-24,24h-20c-1.104,0-2-.896-2-2v-1-21C9,14.641,18.92,4.769,33.124,2.992c4.839-.604,10.391-.951,15.233-.951c4.048,0,7.553.242,10.238.705C55,11.565,55,20.443,55,27Z" fill="#394240" stroke="#383838"/></g></g></g></svg>
